<?xml version="1.0" encoding="UTF-8" standalone="no"?>
<svg xmlns="http://www.w3.org/2000/svg" width="1200" height="630" viewBox="0 0 1200 630" version="1.1">
  <defs>
    <linearGradient id="bg" x1="0" y1="0" x2="1" y2="1">
      <stop offset="0" stop-color="#0d1b2a"/>
      <stop offset="1" stop-color="#1b3a5c"/>
    </linearGradient>
  </defs>
  <rect width="1200" height="630" fill="url(#bg)"/>
  <rect x="0" y="0" width="1200" height="10" fill="#1e88e5"/>

  <!-- Logo -->
  <g transform="translate(90,215) scale(8.3333)">
    <path d="M4 6H2v14c0 1.1.9 2 2 2h14v-2H4V6zm16-4H8c-1.1 0-2 .9-2 2v12c0 1.1.9 2 2 2h12c1.1 0 2-.9 2-2V4c0-1.1-.9-2-2-2zm-8 12.5v-9l6 4.5-6 4.5z" fill="#1e88e5"/>
  </g>

  <!-- Text -->
  <text x="330" y="300" font-family="Helvetica, Arial, sans-serif" font-size="92" font-weight="bold" fill="#ffffff">AVBlocks</text>
  <text x="332" y="380" font-family="Helvetica, Arial, sans-serif" font-size="44" font-weight="bold" fill="#1e88e5">Video &amp; Audio SDK</text>
  <text x="332" y="445" font-family="Helvetica, Arial, sans-serif" font-size="32" fill="#c7d3e0">Encode, Decode &amp; Transcode — C++ · .NET · Python</text>
  <text x="332" y="495" font-family="Helvetica, Arial, sans-serif" font-size="32" fill="#c7d3e0">Windows · macOS · Linux</text>
</svg>
